<?xml version="1.0" encoding="UTF-8" standalone="no"?> <!-- Created with Vectornator for iOS (http://vectornator.io/) --><!DOCTYPE svg PUBLIC "-//W3C//DTD SVG 1.1//EN" "http://www.w3.org/Graphics/SVG/1.1/DTD/svg11.dtd">
<svg height="100%" style="fill-rule:nonzero;clip-rule:evenodd;stroke-linecap:round;stroke-linejoin:round;" xmlns:xlink="http://www.w3.org/1999/xlink" xmlns="http://www.w3.org/2000/svg" xml:space="preserve" width="100%" xmlns:vectornator="http://vectornator.io" version="1.1" viewBox="0 0 543.412 616.851">
<metadata>
<vectornator:setting key="DimensionsVisible" value="1"/>
<vectornator:setting key="PencilOnly" value="0"/>
<vectornator:setting key="SnapToPoints" value="0"/>
<vectornator:setting key="OutlineMode" value="0"/>
<vectornator:setting key="CMYKEnabledKey" value="0"/>
<vectornator:setting key="GuidesVisible" value="1"/>
<vectornator:setting key="SnapToEdges" value="0"/>
<vectornator:setting key="RulersVisible" value="1"/>
<vectornator:setting key="DisplayWhiteBackground" value="0"/>
<vectornator:setting key="doHistoryDisabled" value="0"/>
<vectornator:setting key="TimeLapseWatermarkDisabled" value="0"/>
<vectornator:setting key="SnapToGuides" value="1"/>
<vectornator:setting key="Units" value="Pixels"/>
<vectornator:setting key="IsolateActiveLayer" value="0"/>
<vectornator:setting key="SnapToGrid" value="0"/>
<vectornator:setting key="DynamicGuides" value="0"/>
</metadata>
<defs/>
<g id="Layer 1" vectornator:layerName="Layer 1">
<path d="M137.475+448.751L138.032+449.724L141.3+449.792L139.493+452.293L140.256+453.614L136.364+455.838L136.364+464.877L144.704+464.877L144.704+463.554L153.048+463.625L153.048+464.877L158.608+464.877L166.951+475.997L164.17+475.997L155.831+484.34L114.121+484.34L105.779+475.997L103+475.997L105.779+473.216L105.779+464.877L122.462+464.877L122.462+461.609L120.655+458.481L122.462+457.439L122.462+453.754L125.242+453.754C125.242+452.966+125.511+452.308+126.042+451.773C126.576+451.24+127.236+450.975+128.022+450.975C129.229+450.975+130.085+451.555+130.595+452.712L137.475+448.751Z" fill-rule="evenodd" fill="#000000" opacity="1"/>
<path d="M230.893+158.861C229.721+160.031+228.314+160.617+226.67+160.617C225.026+160.617+223.62+160.032+222.448+158.861C221.281+157.692+220.693+156.284+220.693+154.641L219.274+154.641C219.274+156.284+218.689+157.692+217.518+158.861C216.349+160.031+214.941+160.617+213.295+160.617C211.655+160.617+210.246+160.032+209.076+158.861C207.905+157.692+207.321+156.284+207.321+154.641L204.333+154.641L201.344+151.69L201.344+148.739L198.356+148.739L198.356+145.752L240.194+145.752L240.194+127.746L243.18+127.746L243.18+145.751L246.169+145.751L246.169+130.732L261.109+130.732L264.098+139.699L264.098+148.663L267.085+148.663L267.085+151.651L264.098+151.651L261.109+154.64L258.12+154.64C258.12+156.283+257.536+157.691+256.367+158.86C255.195+160.03+253.788+160.616+252.144+160.616C250.501+160.616+249.095+160.031+247.924+158.86C246.753+157.691+246.168+156.283+246.168+154.64L232.645+154.64C232.647+156.284+232.064+157.691+230.893+158.861Z" fill-rule="evenodd" fill="#000000" opacity="1"/>
<path d="M32.6291+417.974C31.5411+419.062+30.2321+419.608+28.7041+419.608C27.1741+419.608+25.8671+419.063+24.7751+417.974C23.6881+416.886+23.1421+415.577+23.1421+414.048L21.8221+414.048C21.8221+415.576+21.2781+416.886+20.1891+417.974C19.0991+419.062+17.7911+419.608+16.2611+419.608C14.7351+419.608+13.4231+419.063+12.3341+417.974C11.2471+416.886+10.7021+415.577+10.7021+414.048L7.92205+414.048L5.14106+411.303L5.14106+408.557L2.36406+408.557L2.36406+405.779L5.14106+405.779L5.14106+397.369L16.2611+397.369L16.2611+391.807L30.1611+391.807L30.1611+394.658L41.2811+394.658L41.2811+389.029L44.0601+389.029L44.0601+405.779L46.8401+405.779L46.8401+391.808L60.7391+391.808L63.5191+400.15L63.5191+408.488L66.2981+408.488L66.2981+411.268L63.5191+411.268L60.7391+414.048L57.9601+414.048C57.9601+415.576+57.4141+416.886+56.3261+417.974C55.2371+419.062+53.9291+419.608+52.3981+419.608C50.8701+419.608+49.5611+419.063+48.4731+417.974C47.3821+416.886+46.8391+415.577+46.8391+414.048L34.2591+414.048C34.2611+415.577+33.7171+416.886+32.6291+417.974Z" fill-rule="evenodd" fill="#000000" opacity="1"/>
<g opacity="1">
<path d="M492.548+612.352C491.379+613.522+489.971+614.108+488.325+614.108C486.685+614.108+485.275+613.523+484.104+612.352C482.935+611.183+482.35+609.775+482.35+608.132L480.93+608.132C480.93+609.775+480.345+611.183+479.172+612.352C478.005+613.522+476.595+614.108+474.953+614.108C473.309+614.108+471.904+613.523+470.732+612.352C469.563+611.183+468.977+609.775+468.977+608.132L467.408+608.132L467.408+605.143L468.977+605.143L470.513+602.155L476.371+602.155L476.371+599.092L470.433+599.092L461.433+605.15L458.442+605.143L458.442+602.155L461.431+602.155L473.383+593.116L491.314+593.116L491.314+599.092L488.323+599.092L488.323+602.155L497.292+602.155L497.292+584.298L512.231+584.298L515.218+593.225L515.218+602.154L518.207+602.154L518.207+605.142L515.218+605.142L512.231+608.131L509.241+608.131C509.241+609.774+508.658+611.182+507.487+612.351C506.316+613.521+504.908+614.107+503.265+614.107C501.622+614.107+500.213+613.522+499.043+612.351C497.875+611.182+497.291+609.774+497.291+608.131L494.301+608.131C494.304+609.775+493.717+611.182+492.548+612.352Z" fill-rule="evenodd" fill="#000000" opacity="1"/>
<path d="M456.968+599.166L456.968+602.229L459.957+602.229L459.957+605.217L456.968+605.217L453.981+608.205L451.043+608.205C451.043+609.83+450.454+611.218+449.285+612.374C448.114+613.528+446.709+614.107+445.064+614.107C443.418+614.107+442.015+613.528+440.843+612.374C439.672+611.218+439.085+609.829+439.085+608.205L437.517+608.205C437.517+609.83+436.935+611.218+435.761+612.374C434.594+613.528+433.187+614.107+431.543+614.107C429.898+614.107+428.491+613.528+427.32+612.374C426.151+611.218+425.564+609.829+425.564+608.205L424.145+608.205C424.145+609.83+423.561+611.218+422.39+612.374C421.218+613.528+419.811+614.107+418.167+614.107C416.524+614.107+415.117+613.528+413.946+612.374C412.777+611.218+412.192+609.829+412.192+608.205L409.203+608.205L409.203+605.217L403.224+605.217L403.224+602.229L406.213+602.229L406.213+599.166L456.968+599.166Z" fill-rule="evenodd" fill="#000000" opacity="1"/>
</g>
<path d="M33.1101+30.991C32.0601+32.045+30.7901+32.571+29.3131+32.571C27.8351+32.571+26.5681+32.045+25.5171+30.991C24.4641+29.94+23.9371+28.673+23.9371+27.194L22.6611+27.194C22.6611+28.673+22.1331+29.94+21.0821+30.991C20.0291+32.045+18.7621+32.571+17.2851+32.571C15.8041+32.571+14.5401+32.045+13.4861+30.991C12.4361+29.94+11.9081+28.673+11.9081+27.194L9.22006+27.194L9.22006+24.506L3.84006+24.506L3.84006+21.817L6.52906+21.817C4.65006+21.817+3.41706+20.766+2.83406+18.66C2.52106+17.539+2.36406+15.545+2.36406+12.677C2.36406+10.035+2.61206+7.906+3.10406+6.293C3.77706+4.098+4.91906+3+6.52906+3L44.1651+3C45.6911+3+46.7661+4.098+47.3891+6.293C47.7951+7.728+47.9971+9.788+47.9971+12.476C47.9971+15.075+47.7751+17.137+47.3261+18.66C46.7011+20.766+45.6471+21.817+44.1661+21.817L49.5431+21.817L49.5431+5.688L60.2941+5.688L62.9851+13.754L62.9851+21.817L65.6711+21.817L65.6711+24.506L62.9851+24.506L60.2941+27.194L57.6101+27.194C57.6101+28.673+57.0821+29.94+56.0291+30.991C54.9781+32.045+53.7111+32.571+52.2301+32.571C50.7521+32.571+49.4891+32.045+48.4351+30.991C47.3811+29.94+46.8541+28.673+46.8541+27.194L34.6881+27.194C34.6881+28.673+34.1621+29.94+33.1101+30.991Z" fill-rule="evenodd" fill="#000000" opacity="1"/>
<path d="M6.82606+279.427L2.67106+267.833L32.5041+256.973L36.7221+268.504L15.9351+276.11L19.4831+280.402L26.8211+280.402L26.8211+281.748L41.4921+281.748L41.4921+269.52L53.7201+269.52L56.1631+276.858L56.1631+284.193L58.6091+284.193L58.6091+286.639L56.1631+286.639L53.7201+289.084L51.2751+289.084C51.2751+290.429+50.7981+291.581+49.8381+292.538C48.8801+293.496+47.7271+293.975+46.3831+293.975C45.0401+293.975+43.8881+293.496+42.9281+292.538C41.9721+291.581+41.4921+290.429+41.4921+289.084L30.4251+289.084C30.4251+290.429+29.9461+291.581+28.9871+292.538C28.0311+293.496+26.8781+293.975+25.5361+293.975C24.1881+293.975+23.0391+293.496+22.0791+292.538C21.1231+291.581+20.6421+290.429+20.6421+289.084L19.4821+289.084C19.4821+290.429+19.0041+291.581+18.0441+292.538C17.0891+293.496+15.9341+293.975+14.5921+293.975C13.2451+293.975+12.0941+293.496+11.1381+292.538C10.1791+291.581+9.69906+290.429+9.69906+289.084L7.25506+289.084L7.25506+286.639L2.36406+286.639L2.36406+284.193L4.80906+284.193L4.80906+281.748L7.25506+281.748L7.25506+280.402L9.69806+280.402L9.45706+278.446L6.82606+279.427Z" fill-rule="evenodd" fill="#000000" opacity="1"/>
<path d="M150.546+31.431C149.478+32.501+148.194+33.037+146.688+33.037C145.189+33.037+143.903+32.501+142.834+31.431C141.765+30.364+141.23+29.077+141.23+27.576L124.844+27.576C124.844+29.077+124.314+30.364+123.24+31.431C122.171+32.501+120.884+33.037+119.383+33.037C117.881+33.037+116.598+32.501+115.527+31.431C114.458+30.364+113.923+29.077+113.923+27.576L111.191+27.576L108.459+24.846L103+24.846L103+22.114L105.731+22.114L105.731+2.99996L138.498+2.99996L138.498+16.655L141.231+16.655L141.231+5.72997L154.881+5.72997L157.614+13.924L157.614+22.114L160.344+22.114L160.344+24.846L157.614+24.846L154.881+27.576L152.155+27.576C152.154+29.077+151.618+30.364+150.546+31.431Z" fill-rule="evenodd" fill="#000000" opacity="1"/>
<path d="M26.0761+458.132L26.0641+457.206L5.14305+452.045L3.96005+452.05L3.96005+454.848L2.36406+454.848L2.36406+452.058L5.13905+449.268L30.167+454.848L30.167+460.407L19.0461+466.941L19.0461+467.499L32.9481+467.499L32.9481+468.751L38.5081+468.751L38.5081+467.499L46.8511+467.499L46.8511+468.751L52.4131+468.751L60.751+482.652L57.973+482.652L52.4131+488.214L10.7031+488.214L5.14005+482.652L2.36506+482.652L5.14005+479.871L5.14005+468.751L10.7031+468.751L10.7031+463.189L16.265+463.189L16.292+463.722L26.0761+458.132Z" fill-rule="evenodd" fill="#000000" opacity="1"/>
<path d="M171.953+201.739L171.953+204.316L144.241+204.316L146.818+206.894L157.129+206.894L162.286+214.627L159.708+214.627L151.976+222.296L113.309+222.296L105.575+214.627L103+214.627L110.732+206.894L118.464+206.894L118.464+205.605L115.886+205.605L115.886+199.161L123.619+199.161L123.619+198.193L131.352+198.193L131.352+199.161L139.085+199.161L141.663+201.739L171.953+201.739Z" fill-rule="evenodd" fill="#000000" opacity="1"/>
<path d="M246.773+349.471C245.682+350.561+244.376+351.105+242.844+351.105C241.315+351.105+240.005+350.561+238.917+349.471C237.827+348.381+237.281+347.074+237.281+345.543L217.817+345.543C217.817+347.073+217.275+348.381+216.184+349.471C215.099+350.561+213.787+351.105+212.255+351.105C210.726+351.105+209.419+350.561+208.331+349.471C207.243+348.381+206.693+347.074+206.693+345.543L203.917+345.543L201.136+342.762L198.356+342.762L201.136+339.983L201.136+326.082L226.162+326.082L226.162+323.369L234.502+323.369L234.502+326.082L251.186+326.082L256.747+342.763L253.964+342.763L251.186+345.544L248.405+345.544C248.405+347.074+247.862+348.381+246.773+349.471Z" fill-rule="evenodd" fill="#000000" opacity="1"/>
<path d="M324.218+340.799L317.032+340.799L317.032+333.112L319.905+333.112L319.905+331.39L322.781+331.39L322.781+333.112L332.767+333.112L332.767+328.658C331.041+330.145+329.006+331.27+326.66+332.036L325.799+329.303C330.107+327.917+332.982+325.064+334.417+320.748C334.993+319.075+335.28+317.54+335.28+316.146C335.28+313.896+334.563+311.571+333.126+309.172L335.639+307.59C337.316+310.421+338.154+313.199+338.154+315.932C338.154+317.607+337.817+319.503+337.147+321.61C336.909+322.282+336.681+322.853+336.466+323.337C336.249+323.816+335.975+324.39+335.639+325.064L335.639+333.113L342.896+333.113L342.896+340.8L335.854+340.8L335.854+341.732L337.147+341.732L357.261+344.606L357.261+347.48L302.666+347.48L302.666+344.606L322.781+341.732L324.218+341.732L324.218+340.799Z" fill-rule="evenodd" fill="#000000" opacity="1"/>
<path d="M38.181+351.043C37.002+352.226+35.583+352.814+33.9281+352.814C32.2671+352.814+30.8511+352.226+29.6701+351.043C28.4921+349.866+27.8991+348.445+27.8991+346.789L23.4541+346.789C23.4541+348.445+22.8681+349.866+21.6851+351.043C20.5051+352.226+19.085+352.814+17.4331+352.814C15.7711+352.814+14.3521+352.226+13.1731+351.043C11.9921+349.866+11.405+348.445+11.405+346.789L8.38905+346.789L5.37605+343.774L2.36406+343.774L5.37605+340.763L5.37605+328.711L41.5331+328.711L41.5331+326.978L50.5741+326.978L50.5741+328.711L56.599+328.711L65.6391+343.774L62.625+343.774L59.6101+346.789L56.599+346.789C56.599+348.445+56.0101+349.866+54.8301+351.043C53.6491+352.226+52.2291+352.814+50.5741+352.814C48.917+352.814+47.4961+352.226+46.319+351.043C45.14+349.866+44.5481+348.445+44.5481+346.789L39.9521+346.789C39.9511+348.445+39.363+349.866+38.181+351.043Z" fill-rule="evenodd" fill="#000000" opacity="1"/>
<path d="M171.414+263.512L171.414+266.621L146.537+266.621L146.537+269.653L158.976+269.653L168.303+279.062L165.195+279.062L162.085+282.093L158.977+282.093C158.977+283.803+158.367+285.269+157.148+286.485C155.931+287.706+154.466+288.313+152.755+288.313C151.046+288.313+149.582+287.706+148.363+286.485C147.145+285.269+146.537+283.804+146.537+282.093L141.795+282.093C141.795+283.803+141.186+285.269+139.967+286.485C138.751+287.706+137.285+288.313+135.574+288.313C133.865+288.313+132.4+287.706+131.181+286.485C129.963+285.269+129.354+283.804+129.354+282.093L124.766+282.093C124.766+283.803+124.158+285.269+122.94+286.485C121.722+287.706+120.257+288.313+118.548+288.313C116.835+288.313+115.374+287.706+114.156+286.485C112.936+285.269+112.326+283.804+112.326+282.093L109.218+282.093L106.108+279.062L103+279.062L106.108+275.927L106.108+269.653L124.766+269.653L124.766+260.326L146.537+260.326L146.537+263.513L171.414+263.513L171.414+263.512Z" fill-rule="evenodd" fill="#000000" opacity="1"/>
<path d="M334.627+30.1864L334.292+30.1864L334.292+35.0184L328.456+35.0184L328.456+35.9274L329.459+35.9274L333.287+37.8404L333.287+39.7544L302.666+39.7544L302.666+37.8404L319.89+35.9274L320.847+35.9274L320.847+35.0184L316.064+35.0184L316.064+28.2724L321.805+28.2724L321.805+27.2674L327.546+27.2674L327.546+28.2724L332.714+28.2724C332.714+27.7304+332.897+27.2754+333.263+26.9094C333.63+26.5424+334.086+26.3574+334.628+26.3574L335.202+26.4534L335.202+11.0494L336.35+11.0494L336.35+9.13138L339.557+3.37939L342.857+9.12439L342.857+28.2724L346.687+32.0994L346.687+36.9324L342.857+36.9324L342.857+37.8404L341.901+39.7544L337.356+39.7544L336.351+37.8404L335.203+37.8404L335.203+30.1864L334.627+30.1864Z" fill-rule="evenodd" fill="#000000" opacity="1"/>
<path d="M357.26+217.005L360.131+217.005L360.131+219.879L354.387+219.879L354.387+222.75L351.514+222.75C351.514+224.333+350.949+225.685+349.826+226.811C348.699+227.938+347.348+228.499+345.765+228.499C344.187+228.499+342.833+227.938+341.707+226.811C340.582+225.685+340.018+224.333+340.018+222.75L338.657+222.75C338.657+224.333+338.093+225.685+336.965+226.811C335.84+227.938+334.488+228.499+332.91+228.499C331.328+228.499+329.972+227.938+328.851+226.811C327.726+225.685+327.161+224.333+327.161+222.75L322.779+222.75L322.779+219.879L302.666+219.879L302.666+217.005L317.031+217.005L317.031+199.837L319.907+199.837L319.907+205.513L331.399+205.513L331.399+202.639L345.765+202.639L345.765+208.384L357.26+208.384L357.26+217.005Z" fill-rule="evenodd" fill="#000000" opacity="1"/>
<g opacity="1">
<path d="M500.748+288.794C499.657+289.884+498.351+290.428+496.819+290.428C495.29+290.428+493.98+289.884+492.892+288.794C491.802+287.704+491.256+286.397+491.256+284.866L471.793+284.866C471.793+286.396+471.251+287.704+470.16+288.794C469.075+289.884+467.763+290.428+466.231+290.428C464.702+290.428+463.395+289.884+462.307+288.794C461.219+287.704+460.669+286.397+460.669+284.866L457.893+284.866L455.112+282.085L452.332+282.085L455.112+279.306L455.112+265.405L480.138+265.405L480.138+262.692L488.478+262.692L488.478+265.405L505.162+265.405L510.724+282.086L507.941+282.086L505.163+284.867L502.382+284.867C502.381+286.397+501.838+287.704+500.748+288.794Z" fill-rule="evenodd" fill="#000000" opacity="1"/>
<path d="M405.896+271.642L416.597+271.642L416.597+266.294L429.969+266.294L429.969+268.97L440.666+268.97L440.666+263.686L443.344+263.686L443.344+279.667L456.716+279.667L456.716+282.342L437.992+282.342L437.992+285.014L433.914+285.014C433.914+286.488+433.387+287.745+432.34+288.794C431.297+289.843+430.035+290.365+428.563+290.365C427.093+290.365+425.836+289.844+424.789+288.794C423.739+287.745+423.214+286.487+423.214+285.014L421.946+285.014C421.946+286.488+421.421+287.745+420.373+288.794C419.325+289.843+418.065+290.365+416.598+290.365C415.123+290.365+413.867+289.844+412.818+288.794C411.771+287.745+411.246+286.487+411.246+285.014L408.571+285.014L408.571+282.342L403.224+282.342L403.224+279.667L405.897+279.667L405.897+271.642L405.896+271.642Z" fill-rule="evenodd" fill="#000000" opacity="1"/>
</g>
<path d="M21.8281+138.845L18.2111+138.845L18.2111+136.618L13.7671+136.618L13.7671+134.394L18.2101+134.394L20.4391+132.17L27.1121+132.17L27.1121+134.394L33.7851+134.394L33.7851+136.618L27.1121+136.618L27.1121+138.845L24.6081+138.845L24.6081+140.374L32.9481+140.374L32.9481+141.625L38.5111+141.625L38.5111+140.374L46.8541+140.374L46.8541+141.625L52.4161+141.625L60.7561+155.527L57.9761+155.527L52.4161+161.089L10.7051+161.089L5.14706+155.527L2.36406+155.527L5.14706+152.747L5.14706+141.625L13.4881+141.625L13.4881+140.374L21.8281+140.374L21.8281+138.845Z" fill-rule="evenodd" fill="#000000" opacity="1"/>
<path d="M198.359+66.9052L242.988+66.9052L237.701+73.9542L241.747+73.9472L237.341+80.9962L240.64+81.0032L240.64+78.6542L242.989+78.6542L242.989+69.2542L254.74+69.2542L257.089+76.3042L257.089+83.3542L259.44+83.3542L259.44+85.7042L257.089+85.7042L254.74+88.0552L252.389+88.0552C252.389+89.3472+251.929+90.4542+251.008+91.3732C250.089+92.2932+248.982+92.7542+247.69+92.7542C246.396+92.7542+245.291+92.2932+244.37+91.3732C243.451+90.4542+242.989+89.3472+242.989+88.0552L232.355+88.0552C232.355+89.3472+231.896+90.4542+230.975+91.3732C230.055+92.2932+228.948+92.7542+227.656+92.7542C226.364+92.7542+225.257+92.2932+224.336+91.3732C223.417+90.4542+222.957+89.3472+222.957+88.0552L221.841+88.0552C221.841+89.3472+221.38+90.4542+220.459+91.3732C219.539+92.2932+218.432+92.7542+217.14+92.7542C215.848+92.7542+214.743+92.2932+213.822+91.3732C212.901+90.4542+212.44+89.3472+212.44+88.0552L210.089+88.0552L210.089+85.7042L205.39+85.7042L205.39+83.3542L203.04+83.3542L198.356+73.9552L201.881+73.9472L198.359+66.9052Z" fill-rule="evenodd" fill="#000000" opacity="1"/>
<path d="M347.747+411.838L347.747+422.567C347.747+423.209+347.545+423.7+347.136+424.041C346.728+424.38+345.93+424.549+344.741+424.549C343.756+424.549+343.06+424.466+342.654+424.295C341.973+424.024+341.634+423.447+341.634+422.567L341.634+411.786C341.228+411.618+340.7+411.279+340.054+410.769C339.953+410.703+339.8+410.568+339.597+410.364L339.597+400.195C339.597+399.347+340.012+398.459+340.844+397.525C341.676+396.594+342.482+396.128+343.264+396.128C342.856+396.128+342.43+395.762+341.99+395.033C341.549+394.302+341.328+393.548+341.328+392.766C341.328+391.95+341.548+391.322+341.984+390.881C342.558+390.302+343.4+390.015+344.512+390.015C345.623+390.015+346.44+390.286+346.963+390.829C347.485+391.372+347.745+392.052+347.745+392.867C347.745+393.715+347.537+394.473+347.124+395.133C346.71+395.795+346.238+396.127+345.707+396.127C346.692+396.127+347.618+396.594+348.484+397.524C349.349+398.458+349.782+399.346+349.782+400.194L349.782+410.363C349.477+410.634+349.238+410.839+349.069+410.973C348.563+411.346+348.121+411.635+347.747+411.838Z" fill-rule="evenodd" fill="#000000" opacity="1"/>
<path d="M409.444+19.5084L405.923+18.4434L405.351+15.2544L408.299+13.1264L411.57+12.5544L410.426+6.0914L416.889+4.9454L424.415+10.2644L469.576+2.32741L482.995+3.22641L471.46+8.3824L481.768+8.3824L485.041+14.9264L485.041+21.4714L488.313+21.4714L488.313+24.7444L485.041+24.7444L481.768+28.0164L478.496+28.0164C478.496+29.8164+477.856+31.3584+476.574+32.6374C475.293+33.9204+473.752+34.5624+471.953+34.5624C470.151+34.5624+468.611+33.9204+467.329+32.6374C466.049+31.3584+465.406+29.8164+465.406+28.0164L459.515+28.0164C459.515+29.8164+458.876+31.3584+457.593+32.6374C456.311+33.9204+454.77+34.5624+452.969+34.5624C451.169+34.5624+449.631+33.9204+448.346+32.6374C447.068+31.3584+446.425+29.8164+446.425+28.0164L444.872+28.0164C444.872+29.8164+444.229+31.3584+442.947+32.6374C441.668+33.9204+440.124+34.5624+438.325+34.5624C436.527+34.5624+434.985+33.9204+433.702+32.6374C432.42+31.3584+431.781+29.8164+431.781+28.0164L426.133+28.0164C426.133+29.8164+425.494+31.3584+424.212+32.6374C422.93+33.9204+421.387+34.5624+419.588+34.5624C417.788+34.5624+416.247+33.9204+414.964+32.6374C413.685+31.3584+413.042+29.8164+413.042+28.0164L409.688+28.0164L409.688+24.7444L403.224+24.7444L403.224+21.4714L409.688+21.4714L409.444+19.5084ZM460.496+18.1984L468.678+18.1984L468.678+9.11441L461.805+10.4254L462.133+12.3894L460.495+12.7194L460.495+18.1984L460.496+18.1984ZM431.444+18.1654L439.225+18.1984L439.225+21.4704L449.042+21.4704L449.042+18.1984L455.586+18.1984L455.585+13.6734L431.444+18.1654ZM414.108+21.4714L419.589+21.4714L419.589+20.4084L414.108+21.4714Z" fill-rule="evenodd" fill="#000000" opacity="1"/>
<path d="M477.883+140.035L477.883+141.677L483.858+143.021L483.858+146.007L480.87+151.982L476.314+154.968L474.899+154.968C474.899+156.611+474.314+158.018+473.143+159.185C471.974+160.355+470.565+160.941+468.927+160.941C467.282+160.941+465.877+160.355+464.706+159.185C463.538+158.018+462.952+156.611+462.952+154.968L461.309+154.968C461.309+156.611+460.725+158.018+459.556+159.185C458.384+160.355+456.98+160.941+455.335+160.941C453.692+160.941+452.289+160.355+451.122+159.185C449.951+158.018+449.363+156.611+449.363+154.968L439.06+154.968C439.06+156.611+438.476+158.018+437.306+159.185C436.137+160.355+434.731+160.941+433.089+160.941C431.445+160.941+430.039+160.355+428.87+159.185C427.702+158.018+427.114+156.611+427.114+154.968L425.697+154.968C425.697+156.611+425.113+158.018+423.944+159.185C422.772+160.355+421.366+160.941+419.723+160.941C418.081+160.941+416.674+160.355+415.505+159.185C414.335+158.018+413.753+156.611+413.753+154.968L412.183+154.968L406.208+151.982L404.79+151.982L403.224+146.007L403.224+143.021L409.199+134.063L461.311+134.063L461.311+137.051L462.954+137.051L462.954+134.063L471.914+134.063L477.883+140.035Z" fill-rule="evenodd" fill="#000000" opacity="1"/>
<path d="M439.115+479.749L435.581+479.749L411.311+475.705L407.269+473.887L407.269+469.337L411.311+467.619L404.64+455.485L403.224+455.485L403.224+453.867L411.31+453.867L419.4+454.474L415.355+455.485L435.581+467.619L459.846+467.619C461.864+464.923+464.563+463.576+467.932+463.576C471.304+463.576+473.998+464.923+476.02+467.619L480.066+468.024L496.241+471.664L480.067+475.705L476.021+479.749L468.338+479.749L468.338+482.378C469.413+482.649+469.953+483.323+469.953+484.401C469.953+485.751+469.28+486.423+467.932+486.423C466.585+486.423+465.909+485.74+465.909+484.37C465.909+483.275+466.416+482.625+467.427+482.421L467.427+479.748L440.028+479.748L440.028+480.366C441.78+480.64+442.654+481.667+442.654+483.446C442.654+484.199+442.351+484.882+441.744+485.498C441.14+486.115+440.431+486.422+439.62+486.422C438.815+486.422+438.107+486.152+437.499+485.613C436.893+485.075+436.59+484.367+436.59+483.488C436.59+481.807+437.432+480.827+439.115+480.558L439.115+479.749Z" fill-rule="evenodd" fill="#000000" opacity="1"/>
<path d="M303.601+468.747L303.601+462.501C303.601+461.723+303.958+460.957+304.671+460.208C305.383+459.463+306.25+458.936+307.268+458.631C306.18+458.054+305.639+457.17+305.639+455.982L304.671+455.88C304.671+454.761+305.069+453.8+305.867+453.001C306.665+452.205+307.625+451.806+308.745+451.806C309.866+451.806+310.825+452.205+311.623+453.001C312.42+453.8+312.819+454.761+312.819+455.88L311.749+455.88C311.749+456.556+311.626+457.103+311.379+457.525C311.133+457.947+310.747+458.31+310.222+458.613C311.111+458.917+311.883+459.356+312.533+459.93C313.184+460.504+313.595+461.144+313.766+461.853L319.297+458.697L319.755+459.498L313.786+462.96L313.786+472.668C313.481+472.939+313.243+473.142+313.073+473.278C312.565+473.651+312.123+473.938+311.748+474.142L311.748+484.867C311.748+485.511+311.546+486.002+311.137+486.341C310.731+486.68+309.931+486.849+308.744+486.849C307.758+486.849+307.063+486.766+306.656+486.597C305.976+486.324+305.637+485.749+305.637+484.869L305.637+474.099C305.228+473.931+304.702+473.592+304.057+473.085C303.956+473.015+303.802+472.88+303.599+472.676L303.599+472.273L301.664+468.87L303.601+468.747Z" fill-rule="evenodd" fill="#000000" opacity="1"/>
<path d="M217.823+581.436L212.26+581.436L212.26+580.045L217.823+580.045L217.823+577.959L220.603+577.959L220.603+580.045L222.686+580.045L222.686+575.181L224.078+575.181L224.078+580.045L228.248+580.045L228.248+576.848L229.64+576.848L229.64+580.045L233.811+580.045L233.811+577.959L235.2+577.959L235.2+580.045L240.065+580.045L240.065+581.436L235.2+581.436L235.2+583.521L233.811+583.521L233.811+581.436L229.64+581.436L229.64+584.355L228.248+584.355L228.248+581.436L224.078+581.436L224.078+586.301L222.686+586.301L222.686+581.436L220.603+581.436L220.603+591.864L228.941+591.864L228.941+594.644L234.504+594.644L234.504+593.393L242.846+593.393L242.846+594.644L248.409+594.644L256.749+608.545L253.971+608.545L248.409+614.108L206.701+614.108L201.139+608.545L198.356+608.545L201.139+605.765L201.139+594.644L209.48+594.644L209.48+591.864L217.823+591.864L217.823+581.436Z" fill-rule="evenodd" fill="#000000" opacity="1"/>
<path d="M338.574+165.222C337.354+166.443+335.885+167.055+334.17+167.055C332.816+167.055+331.636+166.705+330.621+166.002C329.605+165.301+328.865+164.353+328.398+163.155L302.977+167.054L302.666+163.946L328.011+160.138C328.065+159.509+328.195+158.959+328.402+158.488C328.609+158.017+328.843+157.517+329.104+156.993L328.556+155.514L332.844+152.861L334.017+154.578L337.834+152.275L336.317+149.67L347.049+143.376L348.594+146L373.392+132.88L375.343+136.236L347.268+154.578L349.764+154.891C351.065+155.358+352.105+156.127+352.883+157.19C353.663+158.259+354.055+159.464+354.055+160.815C354.055+162.534+353.441+164.003+352.22+165.223C350.999+166.444+349.529+167.056+347.816+167.056C346.098+167.056+344.631+166.444+343.41+165.223C342.188+164.003+341.576+162.534+341.576+160.815L340.406+160.815C340.407+162.533+339.794+164.002+338.574+165.222Z" fill-rule="evenodd" fill="#000000" opacity="1"/>
<path d="M144.379+393.823L144.379+395.153L156.203+395.153L165.069+409.877L162.112+409.877L156.203+415.772L111.866+415.772L105.955+409.858L103+409.858L105.955+406.92L105.955+395.153L114.822+395.153L114.822+393.751L132.556+393.751L132.556+395.153L135.512+395.153L135.512+393.807C135.512+392.511+135.932+391.414+136.767+390.515C137.607+389.616+138.667+389.168+139.945+389.168C140.93+389.168+141.795+389.447+142.531+390C143.272+390.557+143.788+391.289+144.084+392.198L148.813+392.198L148.813+392.936L144.378+392.936L144.378+393.823L144.379+393.823Z" fill-rule="evenodd" fill="#000000" opacity="1"/>
<path d="M220.599+461.666L228.941+461.666L228.941+453.326L226.159+453.326L226.159+450.543L228.941+450.543C229.319+448.553+230.282+446.906+231.839+445.609C233.394+444.31+235.208+443.661+237.281+443.661L237.281+460.343C235.149+460.343+233.297+459.628+231.721+458.191L231.721+461.666L240.06+461.666L240.06+464.377L241.31+464.377C241.545+463.329+242.517+462.302+244.231+461.298C244.789+460.979+245.623+460.568+246.735+460.068L246.735+471.119C245.577+470.562+244.718+470.124+244.162+469.797C242.449+468.733+241.498+467.691+241.31+466.67L240.06+466.67L240.06+471.467L256.743+471.467L262.306+479.878L259.525+479.878L251.184+488.221L209.476+488.221L201.137+479.878L198.356+479.878L206.695+471.467L220.599+471.467L220.599+461.666Z" fill-rule="evenodd" fill="#000000" opacity="1"/>
<path d="M310.814+411.345L312.852+417.917L309.592+417.917L309.592+421.958C309.592+422.631+309.489+423.129+309.286+423.447C309.083+423.765+308.591+423.926+307.809+423.926C307.163+423.926+306.741+423.843+306.535+423.674C306.197+423.401+306.027+422.826+306.027+421.945L306.027+417.877L302.666+417.877L304.704+411.167C304.296+410.996+303.77+410.657+303.125+410.147C303.024+410.083+302.871+409.946+302.667+409.742L302.667+399.573C302.667+398.727+303.083+397.837+303.915+396.905C304.747+395.972+305.554+395.506+306.335+395.506C305.926+395.506+305.502+395.143+305.062+394.411C304.621+393.68+304.4+392.926+304.4+392.144C304.4+391.33+304.618+390.702+305.055+390.259C305.629+389.683+306.471+389.393+307.582+389.393C308.693+389.393+309.512+389.664+310.033+390.207C310.557+390.75+310.816+391.43+310.816+392.247C310.816+393.095+310.609+393.851+310.195+394.511C309.781+395.175+309.309+395.505+308.779+395.505C309.763+395.505+310.69+395.974+311.555+396.904C312.421+397.841+312.854+398.731+312.854+399.579L312.854+409.767C312.548+410.073+312.311+410.292+312.14+410.429C311.631+410.837+311.189+411.144+310.814+411.345Z" fill-rule="evenodd" fill="#000000" opacity="1"/>
<path d="M310.816+411.326L310.816+422.054C310.816+422.698+310.613+423.189+310.205+423.528C309.798+423.867+308.999+424.036+307.81+424.036C306.826+424.036+306.13+423.953+305.723+423.784C305.043+423.511+304.704+422.936+304.704+422.055L304.704+411.277C304.296+411.106+303.769+410.767+303.124+410.257C303.022+410.193+302.868+410.056+302.666+409.852L302.666+399.683C302.666+398.837+303.082+397.947+303.913+397.015C304.745+396.082+305.551+395.616+306.333+395.616C305.925+395.616+305.5+395.253+305.061+394.521C304.618+393.79+304.398+393.036+304.398+392.254C304.398+391.44+304.616+390.812+305.054+390.369C305.627+389.793+306.469+389.503+307.58+389.503C308.691+389.503+309.51+389.774+310.031+390.317C310.553+390.86+310.814+391.54+310.814+392.357C310.814+393.205+310.606+393.961+310.193+394.621C309.779+395.285+309.308+395.615+308.778+395.615C309.762+395.615+310.688+396.082+311.553+397.014C312.418+397.946+312.851+398.836+312.851+399.682L312.851+409.851C312.546+410.122+312.307+410.327+312.138+410.463C311.632+410.835+311.19+411.122+310.816+411.326ZM320.901+416.242L320.901+422.713C320.901+423.052+320.767+423.33+320.495+423.553C320.223+423.775+319.747+423.885+319.069+423.885C318.423+423.885+318.016+423.849+317.846+423.781C317.438+423.61+317.235+423.256+317.235+422.713L317.235+416.242C317.099+416.175+316.843+416.007+316.47+415.733C316.369+415.666+316.216+415.546+316.012+415.376L316.012+409.267C316.012+408.758+316.258+408.222+316.749+407.661C317.242+407.1+317.726+406.822+318.202+406.822C317.93+406.822+317.667+406.609+317.411+406.184C317.157+405.76+317.03+405.291+317.03+404.783C317.03+404.309+317.182+403.917+317.488+403.611C317.793+403.306+318.286+403.154+318.965+403.154C319.644+403.154+320.137+403.322+320.442+403.663C320.748+404.004+320.9+404.41+320.9+404.886C320.9+405.396+320.774+405.847+320.519+406.235C320.265+406.628+319.984+406.823+319.678+406.823C320.254+406.823+320.806+407.101+321.333+407.662C321.859+408.224+322.123+408.76+322.123+409.268L322.123+415.377C321.919+415.548+321.766+415.667+321.664+415.734C321.292+416.007+321.037+416.175+320.901+416.242ZM333.228+411.454L335.264+418.026L332.004+418.026L332.004+422.067C332.004+422.74+331.903+423.238+331.699+423.556C331.495+423.874+331.003+424.035+330.222+424.035C329.576+424.035+329.153+423.952+328.949+423.783C328.609+423.51+328.44+422.935+328.44+422.054L328.44+417.986L325.078+417.986L327.116+411.276C326.707+411.105+326.181+410.766+325.537+410.256C325.434+410.192+325.282+410.055+325.078+409.851L325.078+399.682C325.078+398.836+325.494+397.946+326.326+397.014C327.159+396.081+327.965+395.615+328.746+395.615C328.338+395.615+327.914+395.252+327.473+394.52C327.032+393.788+326.811+393.035+326.811+392.253C326.811+391.439+327.032+390.811+327.473+390.368C328.049+389.792+328.899+389.502+330.019+389.502C331.14+389.502+331.963+389.773+332.489+390.316C333.015+390.859+333.278+391.539+333.278+392.356C333.278+393.204+333.066+393.96+332.641+394.62C332.217+395.284+331.732+395.614+331.19+395.614C332.174+395.614+333.101+396.083+333.965+397.013C334.831+397.95+335.264+398.84+335.264+399.688L335.264+409.876C334.959+410.182+334.72+410.401+334.552+410.538C334.043+410.946+333.601+411.253+333.228+411.454Z" fill-rule="evenodd" fill="#000000" opacity="1"/>
<path d="M216.499+402.883L228.939+402.883L228.939+405.595L234.502+405.595L234.502+404.342L242.843+404.342L242.843+405.595L248.404+405.595L256.745+419.496L253.967+419.496L248.404+425.059L206.696+425.059L201.135+419.496L198.356+419.496L201.135+416.714L201.135+405.595L209.478+405.595L209.478+402.883L213.716+402.883L213.716+395.07C213.301+394.278+212.988+393.642+212.778+393.15C212.572+392.661+212.396+392.186+212.257+391.722C211.609+389.677+211.283+387.862+211.283+386.28C211.283+383.583+212.142+380.863+213.857+378.119L216.149+379.653C214.759+381.887+214.064+384.117+214.064+386.353C214.064+387.748+214.341+389.26+214.898+390.886C215.639+393.074+216.671+394.83+217.992+396.155C219.312+397.481+221.062+398.492+223.241+399.188L222.407+401.842C220.137+401.1+218.166+400.012+216.499+398.575L216.499+402.883Z" fill-rule="evenodd" fill="#000000" opacity="1"/>
<path d="M316.749+95.6328L313.936+97.2498L313.087+95.7728L309.92+95.9138L309.357+94.9977L311.118+92.3228L312.457+91.5478L309.639+86.6928L314.496+83.8727L322.172+85.9148L350.122+69.7948L360.544+65.8327L352.095+73.2198L349.631+74.6257L350.459+76.1017L325.022+90.7748L342.097+90.7748L342.097+99.2257L335.055+99.2257L335.055+100.069L336.462+100.069L356.176+102.886L356.176+105.702L302.666+105.702L302.666+102.886L322.382+100.069L323.649+100.069L323.649+99.2257L316.749+99.2257L316.749+95.6328Z" fill-rule="evenodd" fill="#000000" opacity="1"/>
<path d="M117.61+592.783L118.633+594.286L121.98+592.271L120.654+589.988L130.051+584.476L131.404+586.774L153.118+575.284L154.825+578.224L131.404+593.536L131.404+594.97L158.718+594.97L166.913+605.894L164.181+605.894L155.988+614.108L115.014+614.108L110.646+609.718L104.089+614.108L103+612.455L109.072+608.144L106.819+605.894L104.09+605.894L106.824+603.163L106.824+594.971L114.062+594.971L117.61+592.783Z" fill-rule="evenodd" fill="#000000" opacity="1"/>
<path d="M132.205+349.656C131.202+350.658+129.995+351.161+128.59+351.161C127.183+351.161+125.979+350.659+124.975+349.656C123.974+348.656+123.471+347.45+123.471+346.041L122.256+346.041C122.256+347.45+121.757+348.657+120.752+349.656C119.751+350.658+118.546+351.161+117.139+351.161C115.731+351.161+114.525+350.659+113.524+349.656C112.521+348.656+112.021+347.45+112.021+346.041L110.677+346.041L110.677+343.481L112.021+343.481L113.337+340.921L118.354+340.921L118.354+338.299L113.269+338.299L105.562+343.487L103+343.48L103+340.92L105.558+340.92L115.795+333.179L131.152+333.179L131.152+338.298L128.59+338.298L128.59+340.92L133.707+340.92L133.707+330.75L136.267+330.75L136.267+325.628L149.064+325.628L151.622+333.179L165.571+335.755L165.571+343.48L166.976+343.48L166.976+346.04L156.741+346.04C156.741+347.449+156.241+348.656+155.237+349.655C154.237+350.657+153.032+351.16+151.622+351.16C150.217+351.16+149.011+350.658+148.009+349.655C147.007+348.655+146.505+347.449+146.505+346.04L133.708+346.04C133.707+347.45+133.208+348.656+132.205+349.656ZM128.59+331.901L118.354+331.901L118.354+326.783L128.59+326.783L128.59+331.901ZM126.031+335.741L120.912+335.741L120.912+330.751L126.031+330.751L126.031+335.741Z" fill-rule="evenodd" fill="#000000" opacity="1"/>
<path d="M302.666+614.108L313.376+589.996L333.528+584.633L353.545+589.996L364.256+614.108L302.666+614.108ZM333.462+606.743C335.337+606.743+336.919+606.095+338.213+604.8C339.509+603.504+340.154+601.918+340.154+600.038C340.154+598.163+339.508+596.578+338.213+595.282C336.919+593.984+335.337+593.336+333.462+593.336C331.587+593.336+330+593.984+328.708+595.282C327.412+596.578+326.766+598.163+326.766+600.038C326.766+601.918+327.412+603.504+328.708+604.8C330+606.095+331.587+606.743+333.462+606.743ZM332.123+596.015L332.123+598.708L329.443+598.708L329.443+601.388L332.123+601.388L332.123+604.062L334.799+604.062L334.799+601.388L337.478+601.388L337.478+598.708L334.799+598.708L334.799+596.015L332.123+596.015Z" fill-rule="evenodd" fill="#000000" opacity="1"/>
<path d="M27.5041+74.7092L44.7051+74.7092L44.7021+76.2902L53.7021+71.1372L54.3711+72.2792L44.7021+77.8122L44.7071+79.4102L55.0171+73.4342L55.6851+74.5762L44.7061+80.8612L44.7061+82.6452L57.9361+82.6452L63.2261+90.5862L60.5831+90.5862L52.6431+98.5232L12.9471+98.5232L5.01006+90.5862L2.36406+90.5862L10.3031+82.6452L20.8871+82.6452L20.8871+74.7082L26.1811+74.7082L26.1811+73.7132C24.9891+73.5812+24.1081+73.0072+23.5341+71.9892C23.2261+71.5022+23.0701+70.9522+23.0701+70.3322C23.0701+68.5202+24.1081+67.0402+26.1811+65.8922L30.1491+72.7872C29.2671+73.2712+28.3861+73.5822+27.5031+73.7142L27.5031+74.7092L27.5041+74.7092Z" fill-rule="evenodd" fill="#000000" opacity="1"/>
<path d="M470.674+73.4766L470.674+74.8646L457.424+74.8646L458.63+76.6246L464.371+76.6246L480.864+80.3326L475.675+85.3346L477.158+87.7436L474.749+87.7436L467.337+95.1556L412.491+95.1556L405.077+87.7436L403.224+87.7436L405.077+84.0396L405.077+76.6256L432.685+76.6256L436.392+70.7916L454.921+70.7916L456.588+73.4786L470.674+73.4786L470.674+73.4766Z" fill-rule="evenodd" fill="#000000" opacity="1"/>
<path d="M313.482+283.399L302.666+283.399L302.666+265.752L333.024+265.752L333.024+283.399L334.162+283.399L339.223+280.867L348.204+280.867L348.204+283.399L340.615+283.399L335.554+285.926L322.905+285.926C322.905+287.32+322.407+288.509+321.417+289.5C320.429+290.49+319.237+290.985+317.845+290.985C316.453+290.985+315.262+290.49+314.271+289.5C313.281+288.509+312.786+287.319+312.786+285.926C312.786+285.041+313.019+284.198+313.482+283.399Z" fill-rule="evenodd" fill="#000000" opacity="1"/>
<g opacity="1">
<path d="M512.396+199.141L520.437+199.141L520.437+199.926L512.832+199.926L514.67+202.461L527.078+202.461L530.574+205.957L541.06+209.451L532.321+219.938L530.574+219.938C530.574+221.886+529.888+223.551+528.519+224.938C527.153+226.325+525.504+227.019+523.581+227.019C521.66+227.019+520.015+226.326+518.647+224.938C517.276+223.551+516.588+221.887+516.588+219.938L514.669+219.938C514.669+221.886+513.983+223.551+512.612+224.938C511.245+226.325+509.597+227.019+507.675+227.019C505.754+227.019+504.109+226.326+502.737+224.938C501.368+223.551+500.684+221.887+500.684+219.938L492.121+219.938C492.121+221.886+491.435+223.551+490.066+224.938C488.7+226.325+487.053+227.019+485.128+227.019C483.202+227.019+481.561+226.326+480.191+224.938C478.82+223.551+478.134+221.887+478.134+219.938L476.477+219.938C476.477+221.886+475.792+223.551+474.423+224.938C473.052+226.325+471.405+227.019+469.485+227.019C467.562+227.019+465.918+226.326+464.545+224.938C463.18+223.551+462.493+221.887+462.493+219.938L460.658+219.938L457.163+216.444L457.163+209.451L467.65+202.461L500.683+202.461L504.177+197.042L511.17+197.042L512.396+199.141Z" fill-rule="evenodd" fill="#000000" opacity="1"/>
<path d="M403.224+209.543L413.715+209.543L413.715+208.579L417.207+208.579L417.207+209.543L427.696+209.543L427.696+202.461L431.19+202.461L431.19+209.542L438.18+209.542L438.18+214.869L437.744+214.869C438.737+215.748+439.407+216.893+439.758+218.3L466.151+213.144L476.634+213.122L476.634+216.619L466.147+216.619L439.756+221.772C439.404+223.291+438.591+224.542+437.309+225.533C436.026+226.524+434.601+227.018+433.026+227.018C431.103+227.018+429.457+226.335+428.086+224.964C426.722+223.596+426.034+221.947+426.034+220.026C426.034+218.278+426.591+216.794+427.698+215.57L427.698+213.033L417.209+213.033L417.209+213.995L413.717+213.995L413.717+213.033L403.226+213.033L403.226+209.543L403.224+209.543Z" fill-rule="evenodd" fill="#000000" opacity="1"/>
</g>
<path d="M220.295+272.595L202.291+273.875L198.356+267.972L198.356+266.001L202.291+260.089L229.838+262.061L243.611+266.005L206.226+266.594L206.226+267.284L243.611+267.972L229.838+271.908L224.968+272.252L229.838+273.875L239.676+273.875L243.612+279.776L241.643+279.776L235.741+285.681L206.227+285.681L200.325+279.776L198.357+279.776L204.259+273.875L223.295+273.875L220.295+272.595Z" fill-rule="evenodd" fill="#000000" opacity="1"/>
<path d="M464.77+397.206L481.18+397.206C483.304+397.206+485.114+397.891+486.618+399.255C488.121+400.628+489.046+402.165+489.388+403.872L493.492+403.872C495.679+403.872+497.593+404.455+499.234+405.615C500.876+406.781+501.697+408.318+501.697+410.233C501.697+412.285+500.86+414.045+499.183+415.516C497.508+416.986+495.61+417.722+493.492+417.722L489.798+417.722L489.798+420.284C490.892+420.56+491.44+421.242+491.44+422.335C491.44+423.706+490.758+424.388+489.388+424.388C488.019+424.388+487.337+423.706+487.337+422.335C487.337+421.242+487.849+420.591+488.878+420.387L488.878+417.722L461.077+417.722L461.077+418.335C462.855+418.609+463.744+419.635+463.744+421.413C463.744+422.167+463.438+422.849+462.821+423.465C462.208+424.08+461.488+424.387+460.667+424.387C459.847+424.387+459.129+424.115+458.512+423.567C457.897+423.019+457.592+422.304+457.592+421.412C457.592+419.704+458.445+418.711+460.155+418.437L460.155+417.72L452.462+417.72L448.357+409.512L407.325+405.408L403.224+397.203L407.325+397.203L411.429+401.303L448.357+401.303L452.462+397.203L460.668+397.203L460.668+393.104L456.563+393.104L456.563+391.975L411.43+391.46L411.43+390.637L456.563+390.229L456.563+389L460.668+389L460.668+386.845L464.772+386.845L464.772+389L468.876+389L468.876+390.229L514.008+390.845L514.008+391.46L468.875+392.078L468.875+393.104L464.771+393.104L464.771+397.206L464.77+397.206Z" fill-rule="evenodd" fill="#000000" opacity="1"/>
<path d="M32.144+584.077C33.874+583.097+35.387+582.418+36.684+582.046C37.983+581.672+39.22+581.483+40.402+581.483C41.131+581.483+41.93+581.599+42.792+581.827C43.02+581.873+43.292+581.965+43.611+582.102C43.339+583.339+42.999+584.346+42.588+585.126C41.316+587.415+39.195+589.43+36.237+591.172L29.645+595.045L38.495+594.998L38.495+593.768L46.682+593.768L46.682+594.998L52.144+594.998L60.332+608.647L57.604+608.647L52.144+614.108L11.188+614.108L5.73+608.647L3+608.647L5.73+605.917L5.73+594.998L13.171+594.998L32.144+584.077Z" fill-rule="evenodd" fill="#000000" opacity="1"/>
<path d="M223.94+27.0214C223.023+27.9414+221.915+28.4024+220.622+28.4024C219.329+28.4024+218.224+27.9414+217.303+27.0214C216.383+26.1024+215.922+24.9954+215.922+23.7034L214.807+23.7034C214.807+24.9954+214.347+26.1024+213.426+27.0214C212.505+27.9414+211.399+28.4024+210.106+28.4024C208.814+28.4024+207.708+27.9414+206.786+27.0214C205.869+26.1024+205.407+24.9954+205.407+23.7034L203.056+23.7034L203.056+21.3524L198.356+21.3524L198.356+19.0034L200.708+19.0034L200.708+2.55343L233.608+2.55343L233.608+14.3024L235.956+14.3024L235.956+4.90343L247.707+4.90343L250.057+11.9534L250.057+19.0034L252.408+19.0034L252.408+21.3524L250.057+21.3524L247.707+23.7034L245.357+23.7034C245.357+24.9954+244.898+26.1024+243.978+27.0214C243.056+27.9414+241.95+28.4024+240.657+28.4024C239.365+28.4024+238.259+27.9414+237.338+27.0214C236.418+26.1024+235.956+24.9954+235.956+23.7034L225.323+23.7034C225.323+24.9944+224.861+26.1024+223.94+27.0214Z" fill-rule="evenodd" fill="#000000" opacity="1"/>
<path d="M229.241+221.013C228.132+222.124+226.796+222.68+225.235+222.68C223.674+222.68+222.339+222.124+221.227+221.013C220.117+219.904+219.561+218.567+219.561+217.007L218.215+217.007C218.215+218.567+217.657+219.903+216.546+221.013C215.437+222.124+214.1+222.68+212.54+222.68C210.977+222.68+209.644+222.124+208.533+221.013C207.423+219.904+206.864+218.567+206.864+217.007L204.027+217.007L204.027+214.17L198.356+214.17L198.356+211.334L201.195+211.334L201.195+208.497L243.745+208.497L243.745+194.386L257.929+194.386L260.765+202.86L260.765+211.334L263.604+211.334L263.604+214.17L260.765+214.17L257.929+217.007L255.093+217.007C255.093+218.567+254.536+219.903+253.425+221.013C252.316+222.124+250.977+222.68+249.42+222.68C247.857+222.68+246.521+222.124+245.411+221.013C244.303+219.904+243.745+218.567+243.745+217.007L230.907+217.007C230.908+218.566+230.353+219.903+229.241+221.013Z" fill-rule="evenodd" fill="#000000" opacity="1"/>
<path d="M133.3+74.4727L126.571+78.3597L123.188+72.4407L143.563+60.6527L144.24+61.8367L148.212+61.9207L146.023+64.9667L146.949+66.5757L136.662+72.5257L136.677+79.9597L143.415+79.9597L146.782+83.3267L160.252+83.3267L166.989+93.4327L163.62+93.4327L160.252+96.7987L156.885+96.7987C156.885+98.6517+156.227+100.237+154.906+101.556C153.587+102.878+152+103.535+150.149+103.535C148.297+103.535+146.71+102.879+145.39+101.556C144.071+100.238+143.414+98.6517+143.414+96.7987L126.574+96.7987C126.574+98.6517+125.916+100.237+124.593+101.556C123.279+102.878+121.692+103.535+119.839+103.535C117.987+103.535+116.402+102.879+115.079+101.556C113.763+100.238+113.1+98.6517+113.1+96.7987L109.737+96.7987L106.37+93.4327L103+93.4327L109.737+83.3267L123.207+83.3267L126.574+79.9597L133.308+79.9597L133.3+74.4727Z" fill-rule="evenodd" fill="#000000" opacity="1"/>
<path d="M135.094+135.518L127.962+135.518L127.962+130.347L124.394+130.347L124.394+128.387L149.354+128.387L149.354+130.347L145.787+130.347L145.787+135.518L138.658+135.518L138.658+138.993L145.787+138.993L149.354+142.557L163.614+142.557L170.745+153.257L167.181+153.257L163.614+156.82L160.048+156.82C160.048+158.781+159.35+160.461+157.953+161.856C156.556+163.256+154.877+163.951+152.918+163.951C150.956+163.951+149.278+163.257+147.879+161.856C146.488+160.46+145.786+158.781+145.786+156.82L127.961+156.82C127.961+158.781+127.265+160.461+125.868+161.856C124.472+163.256+122.79+163.951+120.831+163.951C118.868+163.951+117.19+163.257+115.793+161.856C114.397+160.46+113.698+158.781+113.698+156.82L110.134+156.82L106.566+153.257L103+153.257L110.134+142.557L124.393+142.557L127.961+138.993L135.093+138.993L135.093+135.518L135.094+135.518Z" fill-rule="evenodd" fill="#000000" opacity="1"/>
<path d="M62.9791+202.184L70.1041+212.882L66.5421+212.882L62.9781+216.445L59.4121+216.445C59.4121+218.407+58.7121+220.088+57.3161+221.482C55.9201+222.878+54.2421+223.575+52.2791+223.575C50.3181+223.575+48.6401+222.878+47.2421+221.482C45.8481+220.087+45.1501+218.407+45.1501+216.445L27.3231+216.445C27.3231+218.407+26.6271+220.088+25.2301+221.482C23.8301+222.878+22.1541+223.575+20.1931+223.575C18.2311+223.575+16.5551+222.878+15.1581+221.482C13.7601+220.087+13.0601+218.407+13.0601+216.445L9.50006+216.445L5.93006+212.882L2.36406+212.882L9.50006+202.184L23.7591+202.184L27.3241+198.529L45.1521+198.529L48.7181+202.184L62.9791+202.184Z" fill-rule="evenodd" fill="#000000" opacity="1"/>
<g opacity="1">
<path d="M518.375+353.552C516.94+354.989+515.215+355.704+513.196+355.704C511.181+355.704+509.457+354.988+508.018+353.552C506.584+352.119+505.866+350.395+505.866+348.373L495.328+348.373C495.328+350.394+494.607+352.119+493.172+353.552C491.741+354.989+490.013+355.704+487.995+355.704C485.979+355.704+484.256+354.988+482.819+353.552C481.382+352.119+480.664+350.395+480.664+348.373L474.708+348.373L474.708+344.711L476.998+344.711L476.998+326.472L509.533+326.472L513.196+337.378L524.194+337.378L524.194+344.711L526.213+344.711L526.213+348.373L520.53+348.373C520.53+350.394+519.812+352.119+518.375+353.552Z" fill-rule="evenodd" fill="#000000" opacity="1"/>
<path d="M430.349+347.643L430.349+348.372C430.349+350.391+429.634+352.116+428.197+353.55C426.762+354.989+425.036+355.704+423.018+355.704C421.003+355.704+419.277+354.997+417.839+353.57C416.404+352.148+415.688+350.433+415.688+348.436C415.688+347.164+416.027+345.948+416.694+344.8L403.224+344.8L403.224+333.707L461.876+333.707L461.876+344.71L463.524+344.71L470.857+341.135L483.871+341.135L483.871+344.801L472.873+344.801L465.544+348.372L447.214+348.372C447.214+350.391+446.497+352.116+445.061+353.55C443.625+354.989+441.9+355.704+439.88+355.704C437.863+355.704+436.141+354.989+434.704+353.55C433.267+352.116+432.551+350.391+432.551+348.372L432.551+347.643L430.349+347.643Z" fill-rule="evenodd" fill="#000000" opacity="1"/>
</g>
<path d="M157.012+543.796C155.692+545.118+154.106+545.775+152.254+545.775C150.401+545.775+148.816+545.119+147.495+543.796C146.179+542.478+145.518+540.893+145.518+539.039L125.311+539.039C125.311+540.893+124.653+542.477+123.332+543.796C122.015+545.118+120.429+545.775+118.574+545.775C116.722+545.775+115.138+545.119+113.818+543.796C112.5+542.478+111.84+540.893+111.84+539.039L103+539.039L103+535.674L105.104+535.674L105.104+515.466L138.78+515.466L138.78+518.837L148.885+518.837L152.251+528.936L162.354+528.936L162.354+535.674L164.208+535.674L164.208+539.039L158.984+539.039C158.988+540.893+158.331+542.478+157.012+543.796Z" fill-rule="evenodd" fill="#000000" opacity="1"/>
<path d="M247.022+540.352C246.627+542.261+245.672+543.86+244.158+545.152C242.643+546.446+240.847+547.088+238.77+547.088C236.749+547.088+234.966+546.458+233.423+545.197C231.879+543.931+230.91+542.319+230.519+540.352L227.825+540.352L227.825+536.987L226.307+536.987L226.307+540.352L223.447+540.352C223.052+542.261+222.085+543.86+220.541+545.152C218.999+546.446+217.215+547.088+215.195+547.088C213.12+547.088+211.322+546.472+209.807+545.236C208.291+544.003+207.338+542.373+206.943+540.352L198.356+540.352L198.356+536.987L201.724+536.987L201.724+523.513L226.307+523.513L226.307+530.248L227.825+530.248L227.825+523.513L232.033+523.513L232.033+513.496L242.137+513.496L247.862+527.724L247.862+516.779L251.229+516.779L251.229+540.352L264.699+542.038L264.699+543.72L247.862+543.72L247.862+540.353L247.022+540.353L247.022+540.352Z" fill-rule="evenodd" fill="#000000" opacity="1"/>
<path d="M62.9811+525.986L70.1101+536.684L66.5471+536.684L62.9811+540.248L59.4131+540.248C59.4131+542.209+58.7201+543.89+57.323+545.285C55.9261+546.68+54.2441+547.38+52.2831+547.38C50.3221+547.38+48.6431+546.68+47.2511+545.285C45.8521+543.889+45.1561+542.209+45.1561+540.248L27.3231+540.248C27.3231+542.209+26.6271+543.89+25.2301+545.285C23.8341+546.68+22.1571+547.38+20.1971+547.38C18.2331+547.38+16.5541+546.68+15.1571+545.285C13.7621+543.889+13.0601+542.209+13.0601+540.248L9.49505+540.248L5.93006+536.684L2.36406+536.684L9.49505+525.986L27.3221+525.986L27.3221+518.946L45.1551+518.946L45.1551+521.351L60.308+521.351L60.308+523.58L45.1551+523.58L45.1551+525.986L62.9811+525.986Z" fill-rule="evenodd" fill="#000000" opacity="1"/>
<path d="M458.457+521.785L466.498+521.785L466.498+522.57L458.893+522.57L460.731+525.105L473.139+525.105L476.635+528.601L487.121+532.095L478.382+542.582L476.635+542.582C476.635+544.53+475.949+546.195+474.58+547.582C473.214+548.969+471.565+549.663+469.642+549.663C467.721+549.663+466.076+548.97+464.708+547.582C463.337+546.195+462.649+544.531+462.649+542.582L460.73+542.582C460.73+544.53+460.044+546.195+458.673+547.582C457.306+548.969+455.658+549.663+453.736+549.663C451.815+549.663+450.17+548.97+448.798+547.582C447.429+546.195+446.745+544.531+446.745+542.582L438.182+542.582C438.182+544.53+437.496+546.195+436.127+547.582C434.761+548.969+433.114+549.663+431.189+549.663C429.263+549.663+427.622+548.97+426.252+547.582C424.881+546.195+424.195+544.531+424.195+542.582L422.538+542.582C422.538+544.53+421.853+546.195+420.484+547.582C419.113+548.969+417.466+549.663+415.546+549.663C413.623+549.663+411.979+548.97+410.606+547.582C409.241+546.195+408.554+544.531+408.554+542.582L406.719+542.582L403.224+539.088L403.224+532.095L413.711+525.105L446.744+525.105L450.238+519.686L457.231+519.686L458.457+521.785Z" fill-rule="evenodd" fill="#000000" opacity="1"/>
<g opacity="1">
<path d="M326.392+463.008C326.83+462.754+327.15+462.451+327.355+462.101C327.561+461.747+327.663+461.289+327.663+460.724L328.552+460.724C328.552+459.795+328.22+458.998+327.556+458.334C326.892+457.67+326.095+457.34+325.164+457.34C324.232+457.34+323.434+457.67+322.772+458.332C322.108+458.993+321.776+459.792+321.776+460.721L322.58+460.804C322.58+461.794+323.032+462.526+323.935+463.005C323.088+463.257+322.369+463.694+321.776+464.316C321.184+464.935+320.886+465.57+320.886+466.216L320.886+474.672C321.057+474.841+321.184+474.955+321.268+475.011C321.803+475.436+322.242+475.716+322.58+475.858L322.58+484.821C322.58+485.552+322.861+486.031+323.427+486.258C323.765+486.399+324.344+486.469+325.163+486.469C326.151+486.469+326.814+486.327+327.153+486.047C327.491+485.764+327.661+485.356+327.661+484.821L327.661+475.9C327.97+475.732+328.337+475.492+328.762+475.182C328.903+475.07+329.099+474.9+329.353+474.675L329.353+466.221C329.353+465.545+329.064+464.904+328.486+464.298C327.909+463.692+327.211+463.264+326.392+463.008Z" fill-rule="evenodd" fill="#000000" opacity="1"/>
<path d="M336.255+463.008C336.664+462.783+336.979+462.474+337.198+462.078C337.415+461.683+337.525+461.232+337.525+460.724L338.414+460.724C338.414+459.795+338.082+458.998+337.42+458.334C336.756+457.67+335.959+457.34+335.027+457.34C334.096+457.34+333.298+457.67+332.635+458.332C331.971+458.993+331.641+459.792+331.641+460.721L332.445+460.804C332.445+461.794+332.895+462.526+333.799+463.005C332.952+463.257+332.234+463.694+331.641+464.316C331.048+464.935+330.751+465.57+330.751+466.216L330.751+474.672C331.286+475.206+331.852+475.604+332.445+475.858L332.445+484.821C332.445+485.552+332.726+486.031+333.292+486.258C333.63+486.399+334.209+486.469+335.027+486.469C336.015+486.469+336.679+486.327+337.018+486.047C337.356+485.764+337.525+485.356+337.525+484.821L337.525+475.9C338.145+475.59+338.711+475.182+339.218+474.675L339.218+466.221C339.218+465.545+338.929+464.904+338.35+464.298C337.772+463.692+337.073+463.264+336.255+463.008Z" fill-rule="evenodd" fill="#000000" opacity="1"/>
<path d="M348.212+464.299C347.635+463.693+346.934+463.265+346.116+463.009C346.553+462.755+346.873+462.452+347.079+462.102C347.284+461.748+347.386+461.29+347.386+460.725L348.276+460.725C348.276+459.796+347.943+458.999+347.281+458.335C346.616+457.671+345.821+457.341+344.887+457.341C343.955+457.341+343.158+457.671+342.495+458.333C341.832+458.994+341.499+459.793+341.499+460.722L342.305+460.805C342.305+461.795+342.756+462.527+343.659+463.006C342.812+463.258+342.093+463.695+341.5+464.317C340.91+464.936+340.612+465.571+340.612+466.217L340.612+474.673C340.781+474.842+340.91+474.956+340.992+475.012C341.528+475.437+341.968+475.717+342.306+475.859L342.306+484.822C342.306+485.553+342.587+486.032+343.153+486.259C343.49+486.4+344.069+486.47+344.888+486.47C345.876+486.47+346.539+486.328+346.878+486.048C347.217+485.765+347.386+485.357+347.386+484.822L347.386+475.901C347.695+475.733+348.063+475.493+348.487+475.183C348.627+475.071+348.826+474.901+349.08+474.676L349.08+466.222C349.081+465.546+348.791+464.904+348.212+464.299Z" fill-rule="evenodd" fill="#000000" opacity="1"/>
</g>
<path d="M384.067+529.328L385.65+528.87L385.65+527.599L384.067+527.786L384.067+527.328L385.338+527.328L385.338+525.891L374.486+523.954L355.927+526.078L355.927+524.266L355.386+524.266L355.386+523.183L354.615+523.183L354.615+521.892L354.074+521.892L354.074+519.767L352.949+519.767L352.949+520.267L352.22+520.267L351.053+520.267L351.053+519.497L350.199+519.497L350.199+518.33L346.783+518.33L346.783+519.059L345.2+519.059L345.2+515.997C345.2+515.997+344.888+515.872+344.097+515.872L344.097+515.497L344.909+515.497C345.242+515.497+345.492+515.227+345.492+514.914C345.492+514.581+345.221+514.331+344.909+514.331L342.763+514.331C342.43+514.331+342.18+514.602+342.18+514.914C342.18+515.247+342.451+515.497+342.763+515.497L343.576+515.497L343.576+515.893C343.284+515.914+342.93+515.935+342.534+515.997L342.534+518.288L341.764+519.059L341.764+519.83L340.556+519.83L340.556+521.142L338.889+521.142L338.889+523.933L338.494+524.516L333.89+524.516L333.89+525.558L335.973+526.12L336.744+526.828L336.869+528.453L336.556+528.578L332.453+528.974L332.453+528.057C332.453+527.516+332.016+527.078+331.474+527.078L331.141+527.078C330.599+527.078+330.162+527.516+330.162+528.057L330.162+529.203C330.162+529.203+318.602+531.432+309.395+532.161C300.21+532.89+289.483+532.161+289.483+532.161L285.65+532.161L285.65+533.827L286.963+533.827C286.963+533.827+289.17+535.306+290.17+535.681C291.17+536.035+300.626+543.033+300.626+543.033C300.626+543.033+324.851+540.888+326.621+540.492C327.789+540.228+351.27+536.4+367.076+533.815C374.948+532.528+380.916+531.549+381.276+531.473C382.318+531.223+384.067+529.328+384.067+529.328Z" opacity="1" fill="#000000"/>
</g>
</svg>
